<mxfile host="65bd71144e">
    <diagram id="_1XzqtyFS2UmTLxxWYa6" name="Page-1">
        <mxGraphModel dx="919" dy="247" grid="1" gridSize="10" guides="1" tooltips="1" connect="1" arrows="1" fold="1" page="1" pageScale="1" pageWidth="850" pageHeight="1100" math="0" shadow="0">
            <root>
                <mxCell id="0"/>
                <mxCell id="1" parent="0"/>
                <mxCell id="2" value="dataset_LUNA16_0" style="rounded=0;whiteSpace=wrap;html=1;" parent="1" vertex="1">
                    <mxGeometry x="80" y="70" width="170" height="60" as="geometry"/>
                </mxCell>
                <mxCell id="3" value="dataset_TCIAcovid19_0.json" style="rounded=0;whiteSpace=wrap;html=1;" parent="1" vertex="1">
                    <mxGeometry x="80" y="150" width="170" height="60" as="geometry"/>
                </mxCell>
                <mxCell id="4" value="dataset_HNSCC_0.json" style="rounded=0;whiteSpace=wrap;html=1;" parent="1" vertex="1">
                    <mxGeometry x="80" y="230" width="170" height="60" as="geometry"/>
                </mxCell>
                <mxCell id="13" style="edgeStyle=none;html=1;entryX=-0.017;entryY=0.421;entryDx=0;entryDy=0;entryPerimeter=0;" parent="1" source="5" target="9" edge="1">
                    <mxGeometry relative="1" as="geometry"/>
                </mxCell>
                <mxCell id="5" value="dataset_TCIAcolon_v2_0.json" style="rounded=0;whiteSpace=wrap;html=1;" parent="1" vertex="1">
                    <mxGeometry x="80" y="310" width="180" height="60" as="geometry"/>
                </mxCell>
                <mxCell id="6" value="dataset_LIDC_0.json" style="rounded=0;whiteSpace=wrap;html=1;" parent="1" vertex="1">
                    <mxGeometry x="80" y="390" width="180" height="60" as="geometry"/>
                </mxCell>
                <mxCell id="7" value="&lt;div style=&quot;color: rgb(212, 212, 212); background-color: rgb(30, 30, 30); font-family: &amp;quot;Droid Sans Mono&amp;quot;, &amp;quot;monospace&amp;quot;, monospace; font-size: 14px; line-height: 19px;&quot;&gt;&lt;div style=&quot;line-height: 19px;&quot;&gt;subset_[&lt;span style=&quot;color: #b5cea8;&quot;&gt;0-9&lt;/span&gt;]&amp;nbsp;&lt;/div&gt;&lt;div style=&quot;line-height: 19px;&quot;&gt;seg-lungs-LUNA&lt;span style=&quot;color: #b5cea8;&quot;&gt;16&lt;/span&gt;&lt;/div&gt;&lt;/div&gt;" style="shape=process;whiteSpace=wrap;html=1;backgroundOutline=1;" parent="1" vertex="1">
                    <mxGeometry x="310" y="70" width="220" height="60" as="geometry"/>
                </mxCell>
                <mxCell id="8" value="data" style="shape=process;whiteSpace=wrap;html=1;backgroundOutline=1;" parent="1" vertex="1">
                    <mxGeometry x="360" y="150" width="120" height="60" as="geometry"/>
                </mxCell>
                <mxCell id="9" value="&lt;div style=&quot;color: rgb(212, 212, 212); background-color: rgb(30, 30, 30); font-family: &amp;quot;Droid Sans Mono&amp;quot;, &amp;quot;monospace&amp;quot;, monospace; font-size: 14px; line-height: 19px;&quot;&gt;&lt;div style=&quot;line-height: 19px;&quot;&gt;images&lt;/div&gt;&lt;/div&gt;" style="shape=process;whiteSpace=wrap;html=1;backgroundOutline=1;" parent="1" vertex="1">
                    <mxGeometry x="360" y="230" width="120" height="140" as="geometry"/>
                </mxCell>
                <mxCell id="11" value="&lt;div style=&quot;color: rgb(212, 212, 212); background-color: rgb(30, 30, 30); font-family: &amp;quot;Droid Sans Mono&amp;quot;, &amp;quot;monospace&amp;quot;, monospace; font-size: 14px; line-height: 19px;&quot;&gt;&lt;div style=&quot;line-height: 19px;&quot;&gt;Image_LIDC&lt;/div&gt;&lt;/div&gt;" style="shape=process;whiteSpace=wrap;html=1;backgroundOutline=1;" parent="1" vertex="1">
                    <mxGeometry x="360" y="400" width="120" height="60" as="geometry"/>
                </mxCell>
                <mxCell id="12" value="" style="endArrow=classic;html=1;exitX=1;exitY=0.5;exitDx=0;exitDy=0;" parent="1" source="4" target="9" edge="1">
                    <mxGeometry width="50" height="50" relative="1" as="geometry">
                        <mxPoint x="320" y="290" as="sourcePoint"/>
                        <mxPoint x="370" y="240" as="targetPoint"/>
                    </mxGeometry>
                </mxCell>
                <mxCell id="27" value="Datasets" style="shape=table;startSize=30;container=1;collapsible=0;childLayout=tableLayout;fontStyle=1;align=center;" parent="1" vertex="1">
                    <mxGeometry x="570" y="100" width="210" height="300" as="geometry"/>
                </mxCell>
                <mxCell id="28" value="" style="shape=tableRow;horizontal=0;startSize=0;swimlaneHead=0;swimlaneBody=0;top=0;left=0;bottom=0;right=0;collapsible=0;dropTarget=0;fillColor=none;points=[[0,0.5],[1,0.5]];portConstraint=eastwest;" parent="27" vertex="1">
                    <mxGeometry y="30" width="210" height="50" as="geometry"/>
                </mxCell>
                <mxCell id="40" style="shape=partialRectangle;html=1;whiteSpace=wrap;connectable=0;fillColor=none;top=0;left=0;bottom=0;right=0;overflow=hidden;" parent="28" vertex="1">
                    <mxGeometry width="70" height="50" as="geometry">
                        <mxRectangle width="70" height="50" as="alternateBounds"/>
                    </mxGeometry>
                </mxCell>
                <mxCell id="46" value="Train" style="shape=partialRectangle;html=1;whiteSpace=wrap;connectable=0;fillColor=none;top=0;left=0;bottom=0;right=0;overflow=hidden;" parent="28" vertex="1">
                    <mxGeometry x="70" width="70" height="50" as="geometry">
                        <mxRectangle width="70" height="50" as="alternateBounds"/>
                    </mxGeometry>
                </mxCell>
                <mxCell id="43" value="Val" style="shape=partialRectangle;html=1;whiteSpace=wrap;connectable=0;fillColor=none;top=0;left=0;bottom=0;right=0;overflow=hidden;" parent="28" vertex="1">
                    <mxGeometry x="140" width="70" height="50" as="geometry">
                        <mxRectangle width="70" height="50" as="alternateBounds"/>
                    </mxGeometry>
                </mxCell>
                <mxCell id="32" value="" style="shape=tableRow;horizontal=0;startSize=0;swimlaneHead=0;swimlaneBody=0;top=0;left=0;bottom=0;right=0;collapsible=0;dropTarget=0;fillColor=none;points=[[0,0.5],[1,0.5]];portConstraint=eastwest;" parent="27" vertex="1">
                    <mxGeometry y="80" width="210" height="40" as="geometry"/>
                </mxCell>
                <mxCell id="41" value="LUNA" style="shape=partialRectangle;html=1;whiteSpace=wrap;connectable=0;fillColor=none;top=0;left=0;bottom=0;right=0;overflow=hidden;" parent="32" vertex="1">
                    <mxGeometry width="70" height="40" as="geometry">
                        <mxRectangle width="70" height="40" as="alternateBounds"/>
                    </mxGeometry>
                </mxCell>
                <mxCell id="47" value="843" style="shape=partialRectangle;html=1;whiteSpace=wrap;connectable=0;fillColor=none;top=0;left=0;bottom=0;right=0;overflow=hidden;" parent="32" vertex="1">
                    <mxGeometry x="70" width="70" height="40" as="geometry">
                        <mxRectangle width="70" height="40" as="alternateBounds"/>
                    </mxGeometry>
                </mxCell>
                <mxCell id="44" value="45" style="shape=partialRectangle;html=1;whiteSpace=wrap;connectable=0;fillColor=none;top=0;left=0;bottom=0;right=0;overflow=hidden;" parent="32" vertex="1">
                    <mxGeometry x="140" width="70" height="40" as="geometry">
                        <mxRectangle width="70" height="40" as="alternateBounds"/>
                    </mxGeometry>
                </mxCell>
                <mxCell id="36" value="" style="shape=tableRow;horizontal=0;startSize=0;swimlaneHead=0;swimlaneBody=0;top=0;left=0;bottom=0;right=0;collapsible=0;dropTarget=0;fillColor=none;points=[[0,0.5],[1,0.5]];portConstraint=eastwest;" parent="27" vertex="1">
                    <mxGeometry y="120" width="210" height="40" as="geometry"/>
                </mxCell>
                <mxCell id="42" value="COVID" style="shape=partialRectangle;html=1;whiteSpace=wrap;connectable=0;fillColor=none;top=0;left=0;bottom=0;right=0;overflow=hidden;" parent="36" vertex="1">
                    <mxGeometry width="70" height="40" as="geometry">
                        <mxRectangle width="70" height="40" as="alternateBounds"/>
                    </mxGeometry>
                </mxCell>
                <mxCell id="48" value="722" style="shape=partialRectangle;html=1;whiteSpace=wrap;connectable=0;fillColor=none;top=0;left=0;bottom=0;right=0;overflow=hidden;" parent="36" vertex="1">
                    <mxGeometry x="70" width="70" height="40" as="geometry">
                        <mxRectangle width="70" height="40" as="alternateBounds"/>
                    </mxGeometry>
                </mxCell>
                <mxCell id="45" value="49" style="shape=partialRectangle;html=1;whiteSpace=wrap;connectable=0;fillColor=none;top=0;left=0;bottom=0;right=0;overflow=hidden;" parent="36" vertex="1">
                    <mxGeometry x="140" width="70" height="40" as="geometry">
                        <mxRectangle width="70" height="40" as="alternateBounds"/>
                    </mxGeometry>
                </mxCell>
                <mxCell id="56" style="shape=tableRow;horizontal=0;startSize=0;swimlaneHead=0;swimlaneBody=0;top=0;left=0;bottom=0;right=0;collapsible=0;dropTarget=0;fillColor=none;points=[[0,0.5],[1,0.5]];portConstraint=eastwest;" parent="27" vertex="1">
                    <mxGeometry y="160" width="210" height="40" as="geometry"/>
                </mxCell>
                <mxCell id="57" value="HNSCC" style="shape=partialRectangle;html=1;whiteSpace=wrap;connectable=0;fillColor=none;top=0;left=0;bottom=0;right=0;overflow=hidden;" parent="56" vertex="1">
                    <mxGeometry width="70" height="40" as="geometry">
                        <mxRectangle width="70" height="40" as="alternateBounds"/>
                    </mxGeometry>
                </mxCell>
                <mxCell id="58" value="1222&amp;nbsp;" style="shape=partialRectangle;html=1;whiteSpace=wrap;connectable=0;fillColor=none;top=0;left=0;bottom=0;right=0;overflow=hidden;" parent="56" vertex="1">
                    <mxGeometry x="70" width="70" height="40" as="geometry">
                        <mxRectangle width="70" height="40" as="alternateBounds"/>
                    </mxGeometry>
                </mxCell>
                <mxCell id="60" value="65" style="shape=partialRectangle;html=1;whiteSpace=wrap;connectable=0;fillColor=none;top=0;left=0;bottom=0;right=0;overflow=hidden;" parent="56" vertex="1">
                    <mxGeometry x="140" width="70" height="40" as="geometry">
                        <mxRectangle width="70" height="40" as="alternateBounds"/>
                    </mxGeometry>
                </mxCell>
                <mxCell id="49" style="shape=tableRow;horizontal=0;startSize=0;swimlaneHead=0;swimlaneBody=0;top=0;left=0;bottom=0;right=0;collapsible=0;dropTarget=0;fillColor=none;points=[[0,0.5],[1,0.5]];portConstraint=eastwest;" parent="27" vertex="1">
                    <mxGeometry y="200" width="210" height="50" as="geometry"/>
                </mxCell>
                <mxCell id="50" value="Colon" style="shape=partialRectangle;html=1;whiteSpace=wrap;connectable=0;fillColor=none;top=0;left=0;bottom=0;right=0;overflow=hidden;" parent="49" vertex="1">
                    <mxGeometry width="70" height="50" as="geometry">
                        <mxRectangle width="70" height="50" as="alternateBounds"/>
                    </mxGeometry>
                </mxCell>
                <mxCell id="51" value="1522&amp;nbsp;" style="shape=partialRectangle;html=1;whiteSpace=wrap;connectable=0;fillColor=none;top=0;left=0;bottom=0;right=0;overflow=hidden;" parent="49" vertex="1">
                    <mxGeometry x="70" width="70" height="50" as="geometry">
                        <mxRectangle width="70" height="50" as="alternateBounds"/>
                    </mxGeometry>
                </mxCell>
                <mxCell id="53" value="77" style="shape=partialRectangle;html=1;whiteSpace=wrap;connectable=0;fillColor=none;top=0;left=0;bottom=0;right=0;overflow=hidden;" parent="49" vertex="1">
                    <mxGeometry x="140" width="70" height="50" as="geometry">
                        <mxRectangle width="70" height="50" as="alternateBounds"/>
                    </mxGeometry>
                </mxCell>
                <mxCell id="68" style="shape=tableRow;horizontal=0;startSize=0;swimlaneHead=0;swimlaneBody=0;top=0;left=0;bottom=0;right=0;collapsible=0;dropTarget=0;fillColor=none;points=[[0,0.5],[1,0.5]];portConstraint=eastwest;" parent="27" vertex="1">
                    <mxGeometry y="250" width="210" height="50" as="geometry"/>
                </mxCell>
                <mxCell id="69" value="LIDC" style="shape=partialRectangle;html=1;whiteSpace=wrap;connectable=0;fillColor=none;top=0;left=0;bottom=0;right=0;overflow=hidden;" parent="68" vertex="1">
                    <mxGeometry width="70" height="50" as="geometry">
                        <mxRectangle width="70" height="50" as="alternateBounds"/>
                    </mxGeometry>
                </mxCell>
                <mxCell id="70" value="450" style="shape=partialRectangle;html=1;whiteSpace=wrap;connectable=0;fillColor=none;top=0;left=0;bottom=0;right=0;overflow=hidden;" parent="68" vertex="1">
                    <mxGeometry x="70" width="70" height="50" as="geometry">
                        <mxRectangle width="70" height="50" as="alternateBounds"/>
                    </mxGeometry>
                </mxCell>
                <mxCell id="71" value="24" style="shape=partialRectangle;html=1;whiteSpace=wrap;connectable=0;fillColor=none;top=0;left=0;bottom=0;right=0;overflow=hidden;" parent="68" vertex="1">
                    <mxGeometry x="140" width="70" height="50" as="geometry">
                        <mxRectangle width="70" height="50" as="alternateBounds"/>
                    </mxGeometry>
                </mxCell>
            </root>
        </mxGraphModel>
    </diagram>
</mxfile>